HIERARCHY
ROOT Hips
{
	OFFSET 0.000000 0.000000 0.000000
	CHANNELS 6 Xposition Yposition Zposition Xrotation Yrotation Zrotation
	JOINT Spine
	{
		OFFSET 0.000000 3.927069 -5.890590
		CHANNELS 3 Xrotation Yrotation Zrotation
		JOINT Spine1
		{
			OFFSET 0.000000 1.363853 -7.734808
			CHANNELS 3 Xrotation Yrotation Zrotation
			JOINT Spine2
			{
				OFFSET 0.000000 0.684530 -7.824241
				CHANNELS 3 Xrotation Yrotation Zrotation
				JOINT Spine3
				{
					OFFSET 0.000000 0.000000 -7.854112
					CHANNELS 3 Xrotation Yrotation Zrotation
					JOINT Neck
					{
						OFFSET 0.000003 -2.945282 -20.617078
						CHANNELS 3 Xrotation Yrotation Zrotation
						JOINT Head
						{
							OFFSET 0.000000 -1.875282 -10.635358
							CHANNELS 3 Xrotation Yrotation Zrotation
							End Site
							{
								OFFSET 0.000000 0.000025 -12.713866
							}
						}
					}
					JOINT RightShoulder
					{
						OFFSET 2.644473 -4.407433 -14.280157
						CHANNELS 3 Xrotation Yrotation Zrotation
						JOINT RightArm
						{
							OFFSET 13.134213 0.000000 0.000000
							CHANNELS 3 Xrotation Yrotation Zrotation
							JOINT RightForeArm
							{
								OFFSET 23.602241 0.000000 0.000005
								CHANNELS 3 Xrotation Yrotation Zrotation
								JOINT RightHand
								{
									OFFSET 19.807984 0.000000 0.000000
									CHANNELS 3 Xrotation Yrotation Zrotation
									End Site
									{
										OFFSET 5.714670 0.000000 0.000000
									}
								}
							}
						}
					}
					JOINT LeftShoulder
					{
						OFFSET -2.644468 -4.407433 -14.280157
						CHANNELS 3 Xrotation Yrotation Zrotation
						JOINT LeftArm
						{
							OFFSET -13.134213 0.000000 0.000000
							CHANNELS 3 Xrotation Yrotation Zrotation
							JOINT LeftForeArm
							{
								OFFSET -23.602236 0.000000 -0.000005
								CHANNELS 3 Xrotation Yrotation Zrotation
								JOINT LeftHand
								{
									OFFSET -19.807984 0.000000 0.000000
									CHANNELS 3 Xrotation Yrotation Zrotation
									End Site
									{
										OFFSET -5.714670 0.000000 0.000000
									}
								}
							}
						}
					}
				}
			}
		}
	}
	JOINT RightUpLeg
	{
		OFFSET 7.845273 0.000000 2.291867
		CHANNELS 3 Xrotation Yrotation Zrotation
		JOINT RightLeg
		{
			OFFSET -0.000003 0.000000 38.110058
			CHANNELS 3 Xrotation Yrotation Zrotation
			JOINT RightFoot
			{
				OFFSET -0.000003 0.000000 36.544961
				CHANNELS 3 Xrotation Yrotation Zrotation
				JOINT RightToeBase
				{
					OFFSET -0.000000 -13.256514 4.824981
					CHANNELS 3 Xrotation Yrotation Zrotation
					End Site
					{
						OFFSET 0.000000 -6.346749 0.000000
					}
				}
			}
		}
	}
	JOINT LeftUpLeg
	{
		OFFSET -7.845273 0.000000 2.291867
		CHANNELS 3 Xrotation Yrotation Zrotation
		JOINT LeftLeg
		{
			OFFSET -0.000003 0.000000 38.110061
			CHANNELS 3 Xrotation Yrotation Zrotation
			JOINT LeftFoot
			{
				OFFSET -0.000003 0.000000 36.544961
				CHANNELS 3 Xrotation Yrotation Zrotation
				JOINT LeftToeBase
				{
					OFFSET -0.000000 -13.256514 4.824981
					CHANNELS 3 Xrotation Yrotation Zrotation
					End Site
					{
						OFFSET 0.000000 -6.346749 0.000000
					}
				}
			}
		}
	}
}
MOTION
Frames: 13
Frame Time: 0.033333
-85.808561 76.984080 -123.126254 91.702917 -4.788416 -108.739200 -4.908901 -0.842699 -0.138503 -0.803501 -0.593400 0.154300 0.411900 -4.661999 0.919695 2.080200 -1.768701 0.223300 6.901003 1.630203 -7.438203 -13.318499 3.541397 -13.548101 -11.163802 -2.609297 -10.115608 -19.481911 -37.574891 -29.380215 0.000002 0.000097 -92.012402 24.704400 52.681604 -27.496391 -0.120900 4.282199 6.813403 -1.856105 26.644203 -20.720002 0.000118 -0.000114 97.676500 24.143895 -53.868808 19.317376 11.689003 7.335000 -13.457502 -28.447408 0.000002 -0.000002 12.408511 -8.772199 -6.139196 2.847198 0.000000 0.000002 7.283901 -6.822197 -9.652001 -71.954404 0.000011 -0.000003 -2.774099 -2.186600 -16.569398 8.841404 0.000001 0.000000 
-88.997785 76.736669 -121.974125 90.431830 -4.980526 -110.123899 -5.893004 -0.830101 -0.240303 -0.823100 -0.581000 0.120401 -0.550600 -3.775499 -0.561703 1.963402 -1.340699 -0.076598 6.741803 0.816402 -7.860700 -12.782405 3.668200 -13.986303 -8.446002 -3.434299 -12.924709 -16.899511 -35.450787 -30.318120 0.000002 0.000099 -92.863696 24.316598 53.847803 -27.461997 -2.540701 6.184398 5.359402 -6.545909 30.422093 -19.039999 0.000121 -0.000117 97.741503 21.428194 -53.608796 18.408577 9.129601 8.390901 -12.834895 -30.696612 0.000002 -0.000002 16.235903 -8.777299 -4.987201 1.965399 -0.000001 0.000006 14.011700 -6.929799 -10.591601 -76.869107 0.000016 -0.000004 5.063304 -5.528795 -21.484601 5.283196 -0.000002 0.000002 
-92.126557 76.780116 -120.499642 89.437914 -4.462716 -112.648808 -6.364804 -0.863299 -0.302702 -0.906701 -0.469300 0.096298 -1.210200 -2.986900 -1.381901 2.004702 -0.968400 -0.263799 6.618498 0.568502 -7.927399 -11.905901 3.870000 -13.844205 -6.079404 -4.346000 -14.020400 -15.936210 -33.319792 -32.551716 -0.000000 0.000094 -92.151198 24.747203 54.407593 -27.685099 -4.901404 8.600596 4.190503 -10.966713 33.949795 -17.293800 0.000112 -0.000114 96.803998 19.054789 -53.337402 17.279968 5.491703 9.563202 -12.065599 -30.103410 0.000003 -0.000004 18.588603 -8.384999 -2.831497 1.372899 -0.000001 0.000002 20.641605 -5.812598 -10.065898 -75.705810 0.000005 -0.000002 8.037102 -7.148590 -21.308797 3.909096 0.000001 0.000005 
-95.297236 77.023196 -118.688889 88.985507 -4.129318 -115.320700 -6.783903 -1.034000 -0.411302 -1.020500 -0.508199 0.100796 -1.742400 -2.615799 -2.017501 1.947603 -0.748699 -0.387001 6.759002 0.866801 -8.120501 -10.923501 4.069400 -13.170409 -5.112402 -3.364702 -14.897999 -14.916907 -33.439999 -34.247512 -0.000002 0.000101 -91.769998 24.048809 54.654498 -27.107907 -6.668203 10.530895 3.115802 -15.659316 38.136094 -15.541198 0.000116 -0.000113 95.156993 15.963294 -52.587607 16.208173 0.086002 10.322202 -10.779902 -26.332703 0.000003 -0.000001 19.498202 -7.712097 -0.394898 1.301698 0.000001 -0.000001 25.550505 -4.449501 -9.539102 -68.951907 -0.000004 0.000001 11.435404 -7.389999 -21.280302 4.125401 0.000002 0.000001 
-98.441500 77.281766 -116.613455 88.695820 -3.437030 -117.236396 -6.984004 -1.194501 -0.602302 -1.158698 -0.533800 0.087398 -1.998300 -2.026099 -3.094100 1.911001 -0.418500 -0.666898 6.983501 0.957002 -8.006395 -10.395901 4.162198 -11.906304 -4.778303 -1.950701 -15.436504 -14.599908 -35.018992 -35.451417 0.000001 0.000100 -92.039702 21.738896 55.479295 -26.492098 -8.494605 11.732393 1.776804 -21.088216 41.327194 -12.934898 0.000119 -0.000115 93.463407 12.658895 -51.252295 15.694779 -5.358000 10.896900 -10.801094 -21.415602 0.000002 -0.000005 19.048304 -6.986995 2.852604 1.356100 0.000001 0.000003 28.708206 -3.051500 -10.263399 -58.254117 0.000006 -0.000003 12.607201 -7.101790 -22.227897 3.773198 0.000000 0.000001 
-101.617005 77.433404 -114.286551 88.868616 -2.281728 -118.205105 -6.731403 -1.486400 -0.844005 -1.340301 -0.488701 0.066001 -1.893799 -1.259199 -4.601100 1.988604 0.029300 -1.013002 7.135405 0.826502 -7.932701 -10.135199 4.153898 -10.166601 -5.414600 -1.018401 -15.459306 -14.889510 -36.546891 -36.666717 -0.000000 0.000102 -93.137197 18.428200 55.155896 -25.050492 -10.540103 12.855895 0.198404 -26.630319 42.480095 -10.345695 0.000117 -0.000113 92.623601 11.156703 -50.945005 15.281590 -9.757101 11.398702 -11.336004 -16.844201 -0.000001 0.000004 17.274301 -6.434897 5.866799 2.076500 -0.000001 0.000001 30.305203 -2.218802 -12.201800 -45.159609 0.000006 -0.000004 11.837706 -7.225297 -23.880699 4.019197 0.000001 -0.000004 
-104.935523 77.385131 -111.646721 89.939630 -1.464422 -118.851806 -5.863801 -2.356999 -1.120005 -1.530802 -0.509800 0.071100 -1.849000 -0.793099 -5.898203 1.966000 0.426401 -1.295700 7.228703 0.990101 -8.044303 -10.370301 4.169699 -8.513905 -6.307401 -0.563900 -15.407105 -16.722807 -36.956288 -38.311118 -0.000002 0.000095 -94.238203 14.918815 55.158999 -23.213308 -12.459608 13.815496 -1.576900 -30.998222 42.782084 -8.853290 0.000115 -0.000114 92.620398 9.838288 -49.926601 14.659576 -13.256704 11.362106 -11.126402 -13.749401 0.000002 -0.000001 14.349302 -7.282996 6.798601 2.986499 -0.000003 -0.000002 30.355913 -2.154100 -14.313297 -31.752812 0.000004 -0.000004 11.277101 -7.326998 -24.282603 5.278699 0.000000 0.000002 
-108.389412 77.258400 -108.685846 91.450614 -1.225134 -119.747088 -4.889300 -3.321800 -1.238003 -1.611201 -0.677800 0.089401 -1.842101 -0.796298 -6.614305 1.953600 0.770201 -1.533704 7.234399 1.279701 -8.191600 -10.848204 4.135600 -7.427304 -7.512903 -0.539700 -15.056205 -20.232805 -36.645592 -40.552712 -0.000000 0.000098 -94.499198 11.621200 55.891305 -22.090797 -13.539606 14.568296 -3.222798 -34.650326 42.899986 -8.276890 0.000114 -0.000116 92.671303 8.361798 -49.185003 15.018584 -15.127798 10.444807 -11.565102 -14.674808 0.000002 0.000000 10.563703 -8.753199 7.275802 4.931298 -0.000003 0.000000 29.640606 -2.306900 -16.035999 -22.799405 0.000002 -0.000001 11.935504 -7.998696 -22.571798 5.006800 0.000001 0.000001 
-111.802913 77.285060 -105.318319 91.948724 -1.224039 -121.181404 -4.341101 -3.093900 -0.993204 -1.346799 -0.880500 0.082200 -2.119500 -1.014997 -6.572304 1.924599 0.896101 -1.585000 7.042103 1.432101 -8.295802 -10.413400 4.135098 -7.185303 -9.692104 -1.182099 -14.527607 -24.032405 -35.165287 -42.500011 -0.000001 0.000099 -93.624798 10.551899 55.891700 -22.059292 -13.901907 15.164898 -4.324900 -36.940415 43.705881 -8.096595 0.000117 -0.000117 92.370201 7.935194 -48.762198 15.128175 -14.402703 10.091705 -10.745506 -21.862800 0.000004 -0.000005 4.926102 -11.370398 4.993297 9.286101 -0.000002 -0.000001 28.611210 -0.988004 -14.180400 -24.086203 0.000002 -0.000003 9.290901 -9.886595 -19.869396 3.504802 0.000001 0.000003 
-115.169434 77.276432 -101.579439 91.192203 -1.749825 -122.900607 -4.620402 -2.361798 -0.798803 -1.070101 -0.825800 0.047301 -2.215500 -0.800098 -6.076403 1.830504 0.745801 -1.405301 6.512600 1.216002 -8.063600 -10.510602 4.117799 -7.337598 -11.290104 -1.922398 -13.702204 -29.325103 -33.908390 -44.047111 -0.000001 0.000095 -91.452203 9.663993 55.496799 -22.326991 -14.409507 14.801094 -4.373396 -38.311119 45.631393 -6.593692 0.000117 -0.000115 91.973497 9.542503 -48.499204 15.258688 -10.432004 10.980105 -8.280497 -35.534507 0.000002 0.000002 -7.885505 -11.013594 -1.788402 20.870302 0.000001 0.000005 26.451304 1.546802 -10.328196 -29.499208 0.000002 0.000000 11.533910 -12.953197 -21.102796 2.115799 0.000001 -0.000002 
-118.310396 77.175589 -98.043261 89.368220 -1.534935 -124.815310 -5.313602 -1.124399 -0.647299 -0.859000 -0.463000 -0.027601 -2.052000 0.478402 -5.747299 1.709402 0.643300 -1.161399 6.214504 1.233302 -7.759798 -10.849003 3.801900 -7.460200 -12.679304 -2.805798 -12.425504 -34.932003 -33.889486 -45.510210 -0.000001 0.000100 -87.782998 10.608793 55.177199 -23.831794 -14.706102 13.477195 -2.934496 -38.134320 47.711585 -3.880888 0.000117 -0.000115 91.573501 6.782396 -49.271899 14.243485 -3.465299 12.703203 -8.256196 -51.435211 0.000003 -0.000002 -20.402399 -13.443695 -7.053007 21.262596 0.000004 0.000002 23.784206 4.583203 -9.078294 -32.382904 0.000005 -0.000003 12.396506 -13.243498 -21.884398 -0.135999 0.000000 -0.000001 
-121.183900 76.953859 -94.730080 87.714709 -0.536029 -127.041812 -5.775601 0.096200 -0.360505 -0.618300 -0.098700 -0.087100 -1.779500 2.014301 -5.025694 1.615398 0.606699 -0.725597 5.991501 1.234002 -7.199000 -11.851101 3.469896 -7.414901 -14.565804 -3.361298 -11.177606 -39.529603 -34.250785 -47.112008 -0.000002 0.000102 -82.603597 11.896901 54.753797 -24.280597 -13.959009 12.180692 -1.004196 -37.729620 49.043280 -0.423689 0.000119 -0.000114 92.497905 5.033192 -50.285503 13.496678 4.942003 14.062500 -8.537700 -65.535016 0.000009 -0.000004 -19.388803 -13.803396 -6.038006 18.594002 -0.000001 0.000001 21.239699 7.209499 -10.094502 -34.087207 0.000004 0.000000 15.665204 -11.990798 -20.320701 0.278298 -0.000000 -0.000004 
-123.966465 76.933278 -91.676225 87.747303 -0.231021 -129.275005 -6.006004 0.513700 -0.265402 -0.509699 0.038099 -0.072201 -1.527999 2.315301 -3.451096 1.676700 0.483500 -0.231005 5.697302 1.884101 -7.010302 -12.180204 3.117099 -7.735100 -16.292906 -4.408398 -10.089703 -42.312606 -33.879688 -46.904012 -0.000002 0.000098 -76.476310 11.017205 55.307297 -26.114196 -11.178007 12.077997 0.798904 -37.033218 50.206096 2.284206 0.000118 -0.000115 95.016503 3.299089 -51.239298 12.681974 13.464799 12.528599 -9.396993 -74.039312 0.000013 -0.000004 -10.614001 -12.447794 -5.064202 -0.960198 0.000004 -0.000001 18.530603 7.936499 -10.436294 -35.033212 0.000001 0.000001 19.779899 -11.519100 -17.915905 -0.897000 0.000000 -0.000003 
